<svg xmlns="http://www.w3.org/2000/svg" xmlns:xlink="http://www.w3.org/1999/xlink" width="472" zoomAndPan="magnify" viewBox="0 0 354 147.000002" height="196" preserveAspectRatio="xMidYMid meet" version="1.0"><defs><g/><clipPath id="2f5a2c74e2"><path d="M 84.863281 16 L 237 16 L 237 60 L 84.863281 60 Z M 84.863281 16 " clip-rule="nonzero"/></clipPath><clipPath id="a1244d7739"><path d="M 112 44 L 260.667969 44 L 260.667969 64 L 112 64 Z M 112 44 " clip-rule="nonzero"/></clipPath></defs><g fill="#ffe40e" fill-opacity="1"><g transform="translate(14.348786, 102.80068)"><g><path d="M 16.84375 0.640625 C 13.851562 0.640625 11.164062 0.0195312 8.78125 -1.21875 C 6.394531 -2.46875 4.523438 -4.195312 3.171875 -6.40625 C 1.828125 -8.625 1.15625 -11.125 1.15625 -13.90625 C 1.15625 -16.6875 1.828125 -19.179688 3.171875 -21.390625 C 4.523438 -23.609375 6.394531 -25.335938 8.78125 -26.578125 C 11.164062 -27.828125 13.851562 -28.453125 16.84375 -28.453125 C 19.84375 -28.453125 22.53125 -27.828125 24.90625 -26.578125 C 27.289062 -25.335938 29.160156 -23.609375 30.515625 -21.390625 C 31.867188 -19.179688 32.546875 -16.6875 32.546875 -13.90625 C 32.546875 -11.125 31.867188 -8.625 30.515625 -6.40625 C 29.160156 -4.195312 27.289062 -2.46875 24.90625 -1.21875 C 22.53125 0.0195312 19.84375 0.640625 16.84375 0.640625 Z M 16.84375 -6.953125 C 18.007812 -6.953125 19.0625 -7.234375 20 -7.796875 C 20.945312 -8.367188 21.695312 -9.175781 22.25 -10.21875 C 22.800781 -11.269531 23.078125 -12.5 23.078125 -13.90625 C 23.078125 -15.3125 22.800781 -16.535156 22.25 -17.578125 C 21.695312 -18.628906 20.945312 -19.4375 20 -20 C 19.0625 -20.570312 18.007812 -20.859375 16.84375 -20.859375 C 15.675781 -20.859375 14.625 -20.570312 13.6875 -20 C 12.75 -19.4375 12 -18.628906 11.4375 -17.578125 C 10.882812 -16.535156 10.609375 -15.3125 10.609375 -13.90625 C 10.609375 -12.5 10.882812 -11.269531 11.4375 -10.21875 C 12 -9.175781 12.75 -8.367188 13.6875 -7.796875 C 14.625 -7.234375 15.675781 -6.953125 16.84375 -6.953125 Z M 16.84375 -6.953125 "/></g></g></g><g fill="#ffe40e" fill-opacity="1"><g transform="translate(48.036255, 102.80068)"><g><path d="M 8.296875 -20.546875 L 0.15625 -20.546875 L 0.15625 -27.8125 L 25.828125 -27.8125 L 25.828125 -20.546875 L 17.6875 -20.546875 L 17.6875 0 L 8.296875 0 Z M 8.296875 -20.546875 "/></g></g></g><g fill="#ffe40e" fill-opacity="1"><g transform="translate(74.016921, 102.80068)"><g><path d="M 13.59375 -9.21875 L 11.484375 -6.875 L 11.484375 0 L 2.265625 0 L 2.265625 -27.8125 L 11.484375 -27.8125 L 11.484375 -17.71875 L 20.625 -27.8125 L 30.828125 -27.8125 L 19.703125 -15.578125 L 31.390625 0 L 20.546875 0 Z M 13.59375 -9.21875 "/></g></g></g><g fill="#ffe40e" fill-opacity="1"><g transform="translate(104.407142, 102.80068)"><g><path d="M 15.578125 0.640625 C 11.304688 0.640625 7.976562 -0.507812 5.59375 -2.8125 C 3.21875 -5.125 2.03125 -8.359375 2.03125 -12.515625 L 2.03125 -27.8125 L 11.40625 -27.8125 L 11.40625 -12.796875 C 11.40625 -10.753906 11.769531 -9.269531 12.5 -8.34375 C 13.226562 -7.414062 14.28125 -6.953125 15.65625 -6.953125 C 17.03125 -6.953125 18.082031 -7.414062 18.8125 -8.34375 C 19.539062 -9.269531 19.90625 -10.753906 19.90625 -12.796875 L 19.90625 -27.8125 L 29.125 -27.8125 L 29.125 -12.515625 C 29.125 -8.359375 27.929688 -5.125 25.546875 -2.8125 C 23.160156 -0.507812 19.835938 0.640625 15.578125 0.640625 Z M 15.578125 0.640625 "/></g></g></g><g fill="#ffe40e" fill-opacity="1"><g transform="translate(135.552162, 102.80068)"><g><path d="M 15.65625 -27.8125 C 18.226562 -27.8125 20.46875 -27.382812 22.375 -26.53125 C 24.28125 -25.6875 25.75 -24.46875 26.78125 -22.875 C 27.8125 -21.289062 28.328125 -19.441406 28.328125 -17.328125 C 28.328125 -15.203125 27.8125 -13.34375 26.78125 -11.75 C 25.75 -10.164062 24.28125 -8.945312 22.375 -8.09375 C 20.46875 -7.25 18.226562 -6.828125 15.65625 -6.828125 L 11.640625 -6.828125 L 11.640625 0 L 2.265625 0 L 2.265625 -27.8125 Z M 15.0625 -14.0625 C 16.332031 -14.0625 17.285156 -14.347656 17.921875 -14.921875 C 18.554688 -15.492188 18.875 -16.296875 18.875 -17.328125 C 18.875 -18.359375 18.554688 -19.15625 17.921875 -19.71875 C 17.285156 -20.289062 16.332031 -20.578125 15.0625 -20.578125 L 11.640625 -20.578125 L 11.640625 -14.0625 Z M 15.0625 -14.0625 "/></g></g></g><g fill="#f5f5f5" fill-opacity="1"><g transform="translate(165.069564, 102.80068)"><g/></g></g><g fill="#f5f5f5" fill-opacity="1"><g transform="translate(176.9873, 102.80068)"><g><path d="M 31.984375 -27.8125 L 20.21875 0 L 11 0 L -0.75 -27.8125 L 9.34375 -27.8125 L 15.96875 -11.5625 L 22.765625 -27.8125 Z M 31.984375 -27.8125 "/></g></g></g><g fill="#f5f5f5" fill-opacity="1"><g transform="translate(208.211763, 102.80068)"><g><path d="M 16.84375 0.640625 C 13.851562 0.640625 11.164062 0.0195312 8.78125 -1.21875 C 6.394531 -2.46875 4.523438 -4.195312 3.171875 -6.40625 C 1.828125 -8.625 1.15625 -11.125 1.15625 -13.90625 C 1.15625 -16.6875 1.828125 -19.179688 3.171875 -21.390625 C 4.523438 -23.609375 6.394531 -25.335938 8.78125 -26.578125 C 11.164062 -27.828125 13.851562 -28.453125 16.84375 -28.453125 C 19.84375 -28.453125 22.53125 -27.828125 24.90625 -26.578125 C 27.289062 -25.335938 29.160156 -23.609375 30.515625 -21.390625 C 31.867188 -19.179688 32.546875 -16.6875 32.546875 -13.90625 C 32.546875 -11.125 31.867188 -8.625 30.515625 -6.40625 C 29.160156 -4.195312 27.289062 -2.46875 24.90625 -1.21875 C 22.53125 0.0195312 19.84375 0.640625 16.84375 0.640625 Z M 16.84375 -6.953125 C 18.007812 -6.953125 19.0625 -7.234375 20 -7.796875 C 20.945312 -8.367188 21.695312 -9.175781 22.25 -10.21875 C 22.800781 -11.269531 23.078125 -12.5 23.078125 -13.90625 C 23.078125 -15.3125 22.800781 -16.535156 22.25 -17.578125 C 21.695312 -18.628906 20.945312 -19.4375 20 -20 C 19.0625 -20.570312 18.007812 -20.859375 16.84375 -20.859375 C 15.675781 -20.859375 14.625 -20.570312 13.6875 -20 C 12.75 -19.4375 12 -18.628906 11.4375 -17.578125 C 10.882812 -16.535156 10.609375 -15.3125 10.609375 -13.90625 C 10.609375 -12.5 10.882812 -11.269531 11.4375 -10.21875 C 12 -9.175781 12.75 -8.367188 13.6875 -7.796875 C 14.625 -7.234375 15.675781 -6.953125 16.84375 -6.953125 Z M 16.84375 -6.953125 "/></g></g></g><g fill="#f5f5f5" fill-opacity="1"><g transform="translate(241.899233, 102.80068)"><g><path d="M 26.828125 -7.265625 L 26.828125 0 L 1.265625 0 L 1.265625 -5.765625 L 13.984375 -20.546875 L 1.671875 -20.546875 L 1.671875 -27.8125 L 26.1875 -27.8125 L 26.1875 -22.046875 L 13.46875 -7.265625 Z M 26.828125 -7.265625 "/></g></g></g><g fill="#f5f5f5" fill-opacity="1"><g transform="translate(269.190851, 102.80068)"><g><path d="M 2.265625 -27.8125 L 11.640625 -27.8125 L 11.640625 0 L 2.265625 0 Z M 2.265625 -27.8125 "/></g></g></g><g fill="#f5f5f5" fill-opacity="1"><g transform="translate(283.094872, 102.80068)"><g><path d="M 2.265625 -27.8125 L 11.640625 -27.8125 L 11.640625 -7.265625 L 24.203125 -7.265625 L 24.203125 0 L 2.265625 0 Z M 2.265625 -27.8125 "/></g></g></g><g fill="#f5f5f5" fill-opacity="1"><g transform="translate(307.605679, 102.80068)"><g><path d="M 21.21875 -4.84375 L 10.65625 -4.84375 L 8.78125 0 L -0.75 0 L 11.40625 -27.8125 L 20.625 -27.8125 L 32.78125 0 L 23.078125 0 Z M 18.640625 -11.609375 L 15.9375 -18.59375 L 13.234375 -11.609375 Z M 18.640625 -11.609375 "/></g></g></g><path fill="#ffe40e" d="M 175.648438 12.496094 C 149.3125 12.375 126.660156 16.554688 123.390625 16.96875 C 118.164062 17.628906 116.445312 21.226562 116.445312 21.226562 L 106.320312 43.425781 C 108.109375 43.210938 110.417969 42.929688 113.15625 42.597656 C 113.769531 0.464844 220.078125 16.738281 223.636719 19.109375 C 208.578125 14.195312 191.449219 12.570312 175.648438 12.496094 Z M 175.648438 12.496094 " fill-opacity="1" fill-rule="nonzero"/><g clip-path="url(#2f5a2c74e2)"><path fill="#ffe40e" d="M 152.03125 18.363281 C 152.03125 18.363281 179.613281 13.628906 223.257812 21.453125 C 222.847656 21.039062 231.699219 28.453125 236.433594 43.6875 C 236.226562 43.480469 118.886719 33.394531 84.917969 59.949219 C 85.535156 59.125 99.535156 44.507812 141.53125 40.804688 C 183.527344 37.097656 233.550781 46.773438 227.582031 32.570312 C 221.609375 18.363281 189.085938 18.363281 152.03125 18.363281 Z M 152.03125 18.363281 " fill-opacity="1" fill-rule="nonzero"/></g><path fill="#ffe40e" d="M 106.945312 43.222656 L 103.394531 46.515625 C 103.394531 46.515625 101.027344 43.480469 92.945312 43.789062 C 84.867188 44.097656 89.292969 35.140625 94.078125 35.039062 C 98.863281 34.9375 103.496094 34.113281 103.136719 36.582031 C 102.777344 39.054688 102.726562 42.296875 102.003906 42.605469 C 101.285156 42.914062 102.054688 35.554688 96.085938 36.6875 C 90.117188 37.820312 91.300781 40.238281 92.792969 40.804688 C 94.285156 41.371094 96.445312 39.929688 98.246094 42.039062 C 100.050781 44.148438 105.347656 45.28125 106.945312 43.222656 Z M 106.945312 43.222656 " fill-opacity="1" fill-rule="nonzero"/><path fill="#ffe40e" d="M 236.066406 43.585938 L 239.617188 46.878906 C 239.617188 46.878906 241.984375 43.84375 250.0625 44.152344 C 258.144531 44.460938 253.71875 35.503906 248.929688 35.402344 C 244.144531 35.300781 239.511719 34.476562 239.875 36.945312 C 240.234375 39.417969 240.285156 42.660156 241.007812 42.96875 C 241.726562 43.277344 240.953125 35.917969 246.925781 37.050781 C 252.894531 38.183594 251.710938 40.601562 250.21875 41.167969 C 248.726562 41.730469 246.5625 40.292969 244.761719 42.402344 C 242.960938 44.511719 237.660156 45.644531 236.066406 43.585938 Z M 236.066406 43.585938 " fill-opacity="1" fill-rule="nonzero"/><g clip-path="url(#a1244d7739)"><path fill="#ffe40e" d="M 178.128906 44.097656 C 158.128906 44.164062 136.257812 46.355469 112.117188 53.671875 L 112.15625 53.664062 C 149.28125 44.773438 192.179688 44.957031 222.980469 47.183594 C 222.878906 47.191406 222.832031 47.191406 222.726562 47.195312 C 218.597656 47.40625 216.097656 48.015625 210.605469 48.503906 C 205.113281 48.996094 199.589844 49.621094 195.339844 50.386719 C 193.21875 50.769531 191.414062 51.183594 190.078125 51.640625 C 189.40625 51.871094 188.855469 52.109375 188.433594 52.367188 C 188.011719 52.628906 187.703125 52.90625 187.574219 53.265625 C 187.445312 53.644531 187.613281 54.042969 187.921875 54.332031 C 226.96875 78.304688 253.59375 32.839844 260.015625 63.675781 C 260.316406 63.65625 260.613281 63.636719 260.902344 63.628906 C 259.589844 54.375 254.820312 52.097656 252.953125 48.980469 C 252.371094 48.011719 251.597656 47.558594 250.808594 47.484375 C 250.019531 47.414062 249.234375 47.699219 248.542969 48.078125 C 243.433594 51.90625 237.210938 54.304688 231.261719 55.429688 C 225.0625 56.546875 218.054688 57 211.507812 56.992188 C 180.023438 51.320312 217.085938 48.800781 232.882812 47.269531 C 216.246094 46.085938 198.125 44.03125 178.128906 44.097656 Z M 178.128906 44.097656 " fill-opacity="1" fill-rule="nonzero"/></g><g fill="#f5f5f5" fill-opacity="1"><g transform="translate(115.408937, 135.361261)"><g><path d="M 5.359375 0.203125 C 4.285156 0.203125 3.257812 0.0507812 2.28125 -0.25 C 1.300781 -0.5625 0.535156 -0.957031 -0.015625 -1.4375 L 1.078125 -3.453125 C 1.660156 -2.992188 2.347656 -2.628906 3.140625 -2.359375 C 3.941406 -2.085938 4.757812 -1.953125 5.59375 -1.953125 C 6.613281 -1.953125 7.425781 -2.125 8.03125 -2.46875 C 8.632812 -2.820312 8.9375 -3.300781 8.9375 -3.90625 C 8.9375 -4.25 8.8125 -4.535156 8.5625 -4.765625 C 8.320312 -5.003906 8.019531 -5.195312 7.65625 -5.34375 C 7.289062 -5.488281 6.785156 -5.65625 6.140625 -5.84375 C 5.234375 -6.101562 4.503906 -6.351562 3.953125 -6.59375 C 3.398438 -6.84375 2.921875 -7.210938 2.515625 -7.703125 C 2.117188 -8.191406 1.921875 -8.828125 1.921875 -9.609375 C 1.921875 -10.515625 2.175781 -11.300781 2.6875 -11.96875 C 3.195312 -12.644531 3.910156 -13.164062 4.828125 -13.53125 C 5.742188 -13.90625 6.796875 -14.09375 7.984375 -14.09375 C 8.878906 -14.09375 9.726562 -13.988281 10.53125 -13.78125 C 11.34375 -13.582031 12.039062 -13.296875 12.625 -12.921875 L 11.625 -10.890625 C 11.101562 -11.234375 10.515625 -11.492188 9.859375 -11.671875 C 9.210938 -11.859375 8.539062 -11.953125 7.84375 -11.953125 C 6.8125 -11.953125 5.992188 -11.765625 5.390625 -11.390625 C 4.785156 -11.015625 4.484375 -10.515625 4.484375 -9.890625 C 4.484375 -9.535156 4.609375 -9.238281 4.859375 -9 C 5.117188 -8.757812 5.425781 -8.566406 5.78125 -8.421875 C 6.132812 -8.285156 6.65625 -8.113281 7.34375 -7.90625 C 8.21875 -7.65625 8.929688 -7.410156 9.484375 -7.171875 C 10.046875 -6.929688 10.519531 -6.578125 10.90625 -6.109375 C 11.300781 -5.648438 11.5 -5.050781 11.5 -4.3125 C 11.5 -3.394531 11.242188 -2.597656 10.734375 -1.921875 C 10.222656 -1.242188 9.5 -0.71875 8.5625 -0.34375 C 7.632812 0.0195312 6.566406 0.203125 5.359375 0.203125 Z M 5.359375 0.203125 "/></g></g></g><g fill="#f5f5f5" fill-opacity="1"><g transform="translate(127.899013, 135.361261)"><g><path d="M 16.28125 -13.90625 L 7.453125 0 L 4.90625 0 L 1.625 -13.90625 L 4.296875 -13.90625 L 6.765625 -3.21875 L 13.609375 -13.90625 Z M 16.28125 -13.90625 "/></g></g></g><g fill="#f5f5f5" fill-opacity="1"><g transform="translate(142.374783, 135.361261)"><g><path d="M 3.59375 -13.90625 L 6.171875 -13.90625 L 3.390625 0 L 0.8125 0 Z M 3.59375 -13.90625 "/></g></g></g><g fill="#f5f5f5" fill-opacity="1"><g transform="translate(148.709175, 135.361261)"><g><path d="M 15.921875 -13.90625 L 13.140625 0 L 10.578125 0 L 11.75 -5.890625 L 4.5625 -5.890625 L 3.390625 0 L 0.8125 0 L 3.59375 -13.90625 L 6.171875 -13.90625 L 5.046875 -8.203125 L 12.234375 -8.203125 L 13.359375 -13.90625 Z M 15.921875 -13.90625 "/></g></g></g><g fill="#f5f5f5" fill-opacity="1"><g transform="translate(164.793365, 135.361261)"><g/></g></g><g fill="#f5f5f5" fill-opacity="1"><g transform="translate(170.273909, 135.361261)"><g><path d="M 16.28125 -13.90625 L 7.453125 0 L 4.90625 0 L 1.625 -13.90625 L 4.296875 -13.90625 L 6.765625 -3.21875 L 13.609375 -13.90625 Z M 16.28125 -13.90625 "/></g></g></g><g fill="#f5f5f5" fill-opacity="1"><g transform="translate(184.749679, 135.361261)"><g><path d="M 14.28125 -9.71875 C 14.28125 -8.375 13.921875 -7.238281 13.203125 -6.3125 C 12.492188 -5.394531 11.492188 -4.757812 10.203125 -4.40625 L 12.6875 0 L 9.953125 0 L 7.671875 -4.078125 L 4.203125 -4.078125 L 3.421875 0 L 0.8125 0 L 3.59375 -13.90625 L 9 -13.90625 C 10.675781 -13.90625 11.972656 -13.535156 12.890625 -12.796875 C 13.816406 -12.066406 14.28125 -11.039062 14.28125 -9.71875 Z M 7.71875 -6.203125 C 8.976562 -6.203125 9.953125 -6.484375 10.640625 -7.046875 C 11.328125 -7.609375 11.671875 -8.414062 11.671875 -9.46875 C 11.671875 -10.207031 11.414062 -10.765625 10.90625 -11.140625 C 10.394531 -11.523438 9.664062 -11.71875 8.71875 -11.71875 L 5.765625 -11.71875 L 4.640625 -6.203125 Z M 7.71875 -6.203125 "/></g></g></g><g fill="#f5f5f5" fill-opacity="1"><g transform="translate(199.265164, 135.361261)"><g><path d="M 5.359375 0.203125 C 4.285156 0.203125 3.257812 0.0507812 2.28125 -0.25 C 1.300781 -0.5625 0.535156 -0.957031 -0.015625 -1.4375 L 1.078125 -3.453125 C 1.660156 -2.992188 2.347656 -2.628906 3.140625 -2.359375 C 3.941406 -2.085938 4.757812 -1.953125 5.59375 -1.953125 C 6.613281 -1.953125 7.425781 -2.125 8.03125 -2.46875 C 8.632812 -2.820312 8.9375 -3.300781 8.9375 -3.90625 C 8.9375 -4.25 8.8125 -4.535156 8.5625 -4.765625 C 8.320312 -5.003906 8.019531 -5.195312 7.65625 -5.34375 C 7.289062 -5.488281 6.785156 -5.65625 6.140625 -5.84375 C 5.234375 -6.101562 4.503906 -6.351562 3.953125 -6.59375 C 3.398438 -6.84375 2.921875 -7.210938 2.515625 -7.703125 C 2.117188 -8.191406 1.921875 -8.828125 1.921875 -9.609375 C 1.921875 -10.515625 2.175781 -11.300781 2.6875 -11.96875 C 3.195312 -12.644531 3.910156 -13.164062 4.828125 -13.53125 C 5.742188 -13.90625 6.796875 -14.09375 7.984375 -14.09375 C 8.878906 -14.09375 9.726562 -13.988281 10.53125 -13.78125 C 11.34375 -13.582031 12.039062 -13.296875 12.625 -12.921875 L 11.625 -10.890625 C 11.101562 -11.234375 10.515625 -11.492188 9.859375 -11.671875 C 9.210938 -11.859375 8.539062 -11.953125 7.84375 -11.953125 C 6.8125 -11.953125 5.992188 -11.765625 5.390625 -11.390625 C 4.785156 -11.015625 4.484375 -10.515625 4.484375 -9.890625 C 4.484375 -9.535156 4.609375 -9.238281 4.859375 -9 C 5.117188 -8.757812 5.425781 -8.566406 5.78125 -8.421875 C 6.132812 -8.285156 6.65625 -8.113281 7.34375 -7.90625 C 8.21875 -7.65625 8.929688 -7.410156 9.484375 -7.171875 C 10.046875 -6.929688 10.519531 -6.578125 10.90625 -6.109375 C 11.300781 -5.648438 11.5 -5.050781 11.5 -4.3125 C 11.5 -3.394531 11.242188 -2.597656 10.734375 -1.921875 C 10.222656 -1.242188 9.5 -0.71875 8.5625 -0.34375 C 7.632812 0.0195312 6.566406 0.203125 5.359375 0.203125 Z M 5.359375 0.203125 "/></g></g></g><g fill="#f5f5f5" fill-opacity="1"><g transform="translate(211.75524, 135.361261)"><g><path d="M 5.984375 -11.71875 L 1.375 -11.71875 L 1.8125 -13.90625 L 13.609375 -13.90625 L 13.140625 -11.71875 L 8.546875 -11.71875 L 6.21875 0 L 3.640625 0 Z M 5.984375 -11.71875 "/></g></g></g><g fill="#f5f5f5" fill-opacity="1"><g transform="translate(223.709168, 135.361261)"><g><path d="M 10.609375 -3.21875 L 3.609375 -3.21875 L 1.609375 0 L -1.15625 0 L 7.890625 -13.90625 L 10.453125 -13.90625 L 13.90625 0 L 11.34375 0 Z M 10.125 -5.25 L 8.71875 -11.359375 L 4.890625 -5.25 Z M 10.125 -5.25 "/></g></g></g></svg>